{
    "asset" : {
        "generator" : "Khronos glTF Blender I/O v1.0.5",
        "version" : "2.0"
    },
    "scene" : 0,
    "scenes" : [
        {
            "name" : "Scene",
            "nodes" : [
                0,
                1,
                2
            ]
        }
    ],
    "nodes" : [
        {
            "name" : "Light",
            "rotation" : [
                0.16907575726509094,
                0.7558803558349609,
                -0.27217137813568115,
                0.570947527885437
            ],
            "translation" : [
                4.076245307922363,
                5.903861999511719,
                -1.0054539442062378
            ]
        },
        {
            "name" : "Camera",
            "rotation" : [
                0.483536034822464,
                0.33687159419059753,
                -0.20870360732078552,
                0.7804827094078064
            ],
            "translation" : [
                7.358891487121582,
                4.958309173583984,
                6.925790786743164
            ]
        },
        {
            "mesh" : 0,
            "name" : "\u041a\u0443\u0431.001_\u041a\u0443\u0431.013",
            "rotation" : [
                0.7071067690849304,
                0,
                0,
                0.7071067690849304
            ]
        }
    ],
    "materials" : [
        {
            "doubleSided" : true,
            "name" : "\u041b\u0414\u0421\u041f.001",
            "pbrMetallicRoughness" : {
                "baseColorFactor" : [
                    0.7230555415153503,
                    0.05612839758396149,
                    0.05951126664876938,
                    1
                ],
                "metallicFactor" : 0,
                "roughnessFactor" : 0.4000000059604645
            }
        },
        {
            "doubleSided" : true,
            "name" : "Galvanized_Steel",
            "pbrMetallicRoughness" : {
                "baseColorFactor" : [
                    0.800000011920929,
                    0.800000011920929,
                    0.800000011920929,
                    1
                ],
                "metallicFactor" : 0,
                "roughnessFactor" : 0.5
            }
        },
        {
            "doubleSided" : true,
            "name" : "wire_115115115",
            "pbrMetallicRoughness" : {
                "baseColorFactor" : [
                    0,
                    0,
                    0,
                    1
                ],
                "metallicFactor" : 0,
                "roughnessFactor" : 0.3378378450870514
            }
        },
        {
            "doubleSided" : true,
            "name" : "Galvanized_Steel.001",
            "pbrMetallicRoughness" : {
                "baseColorFactor" : [
                    0.800000011920929,
                    0.800000011920929,
                    0.800000011920929,
                    1
                ],
                "metallicFactor" : 0,
                "roughnessFactor" : 0.5
            }
        },
        {
            "doubleSided" : true,
            "name" : "\u0421\u0442\u0430\u043b\u044c.002",
            "pbrMetallicRoughness" : {
                "baseColorFactor" : [
                    0.800000011920929,
                    0.800000011920929,
                    0.800000011920929,
                    1
                ],
                "metallicFactor" : 0,
                "roughnessFactor" : 0.4000000059604645
            }
        },
        {
            "doubleSided" : true,
            "name" : "Galvanized_Steel.002",
            "pbrMetallicRoughness" : {
                "baseColorFactor" : [
                    0.800000011920929,
                    0.800000011920929,
                    0.800000011920929,
                    1
                ],
                "metallicFactor" : 0,
                "roughnessFactor" : 0.5
            }
        },
        {
            "doubleSided" : true,
            "name" : "default.001",
            "pbrMetallicRoughness" : {
                "baseColorFactor" : [
                    0.800000011920929,
                    0.800000011920929,
                    0.800000011920929,
                    1
                ],
                "metallicFactor" : 0,
                "roughnessFactor" : 0.5
            }
        },
        {
            "doubleSided" : true,
            "name" : "\u0410\u043d\u043e\u0434\u0438\u0440\u043e\u0432\u0430\u043d\u043d\u043e\u0435_\u0441\u0435\u0440\u0435\u0431\u0440\u043e",
            "pbrMetallicRoughness" : {
                "baseColorFactor" : [
                    0.800000011920929,
                    0.800000011920929,
                    0.800000011920929,
                    1
                ],
                "metallicFactor" : 0,
                "roughnessFactor" : 0.5
            }
        },
        {
            "doubleSided" : true,
            "name" : "\u0410\u043d\u043e\u0434\u0438\u0440\u043e\u0432\u0430\u043d\u043d\u043e\u0435_\u0441\u0435\u0440\u0435\u0431\u0440\u043e.001",
            "pbrMetallicRoughness" : {
                "baseColorFactor" : [
                    0.800000011920929,
                    0.800000011920929,
                    0.800000011920929,
                    1
                ],
                "metallicFactor" : 0,
                "roughnessFactor" : 0.5
            }
        }
    ],
    "meshes" : [
        {
            "name" : "\u041a\u0443\u0431.001_\u041a\u0443\u0431.013",
            "primitives" : [
                {
                    "attributes" : {
                        "POSITION" : 0,
                        "NORMAL" : 1,
                        "TEXCOORD_0" : 2
                    },
                    "indices" : 3,
                    "material" : 0
                },
                {
                    "attributes" : {
                        "POSITION" : 4,
                        "NORMAL" : 5,
                        "TEXCOORD_0" : 6
                    },
                    "indices" : 7,
                    "material" : 1
                },
                {
                    "attributes" : {
                        "POSITION" : 8,
                        "NORMAL" : 9,
                        "TEXCOORD_0" : 10
                    },
                    "indices" : 11,
                    "material" : 2
                },
                {
                    "attributes" : {
                        "POSITION" : 12,
                        "NORMAL" : 13,
                        "TEXCOORD_0" : 14
                    },
                    "indices" : 15,
                    "material" : 3
                },
                {
                    "attributes" : {
                        "POSITION" : 16,
                        "NORMAL" : 17,
                        "TEXCOORD_0" : 18
                    },
                    "indices" : 19,
                    "material" : 4
                },
                {
                    "attributes" : {
                        "POSITION" : 20,
                        "NORMAL" : 21,
                        "TEXCOORD_0" : 22
                    },
                    "indices" : 23,
                    "material" : 5
                },
                {
                    "attributes" : {
                        "POSITION" : 24,
                        "NORMAL" : 25,
                        "TEXCOORD_0" : 26
                    },
                    "indices" : 27,
                    "material" : 6
                },
                {
                    "attributes" : {
                        "POSITION" : 28,
                        "NORMAL" : 29,
                        "TEXCOORD_0" : 30
                    },
                    "indices" : 31,
                    "material" : 7
                },
                {
                    "attributes" : {
                        "POSITION" : 32,
                        "NORMAL" : 33,
                        "TEXCOORD_0" : 34
                    },
                    "indices" : 35,
                    "material" : 8
                }
            ]
        }
    ],
    "accessors" : [
        {
            "bufferView" : 0,
            "componentType" : 5126,
            "count" : 1578,
            "max" : [
                0.9666919708251953,
                0.30000001192092896,
                0
            ],
            "min" : [
                -0.9333080053329468,
                -0.30000099539756775,
                -2.5999999046325684
            ],
            "type" : "VEC3"
        },
        {
            "bufferView" : 1,
            "componentType" : 5126,
            "count" : 1578,
            "type" : "VEC3"
        },
        {
            "bufferView" : 2,
            "componentType" : 5126,
            "count" : 1578,
            "type" : "VEC2"
        },
        {
            "bufferView" : 3,
            "componentType" : 5123,
            "count" : 3444,
            "type" : "SCALAR"
        },
        {
            "bufferView" : 4,
            "componentType" : 5126,
            "count" : 3830,
            "max" : [
                -2.33794903755188,
                4.645052909851074,
                -0.008686999790370464
            ],
            "min" : [
                -2.338007926940918,
                4.644504070281982,
                -0.009147999808192253
            ],
            "type" : "VEC3"
        },
        {
            "bufferView" : 5,
            "componentType" : 5126,
            "count" : 3830,
            "type" : "VEC3"
        },
        {
            "bufferView" : 6,
            "componentType" : 5126,
            "count" : 3830,
            "type" : "VEC2"
        },
        {
            "bufferView" : 7,
            "componentType" : 5123,
            "count" : 19992,
            "type" : "SCALAR"
        },
        {
            "bufferView" : 8,
            "componentType" : 5126,
            "count" : 7066,
            "max" : [
                -2.3379530906677246,
                4.645055770874023,
                -0.00868299975991249
            ],
            "min" : [
                -2.3380110263824463,
                4.644501209259033,
                -0.009151999838650227
            ],
            "type" : "VEC3"
        },
        {
            "bufferView" : 9,
            "componentType" : 5126,
            "count" : 7066,
            "type" : "VEC3"
        },
        {
            "bufferView" : 10,
            "componentType" : 5126,
            "count" : 7066,
            "type" : "VEC2"
        },
        {
            "bufferView" : 11,
            "componentType" : 5123,
            "count" : 40860,
            "type" : "SCALAR"
        },
        {
            "bufferView" : 12,
            "componentType" : 5126,
            "count" : 3672,
            "max" : [
                0.9486920237541199,
                -0.0359559990465641,
                -1.0764390230178833
            ],
            "min" : [
                -0.9113500118255615,
                -0.30000099539756775,
                -2.2139999866485596
            ],
            "type" : "VEC3"
        },
        {
            "bufferView" : 13,
            "componentType" : 5126,
            "count" : 3672,
            "type" : "VEC3"
        },
        {
            "bufferView" : 14,
            "componentType" : 5126,
            "count" : 3672,
            "type" : "VEC2"
        },
        {
            "bufferView" : 15,
            "componentType" : 5123,
            "count" : 19476,
            "type" : "SCALAR"
        },
        {
            "bufferView" : 16,
            "componentType" : 5126,
            "count" : 1875,
            "max" : [
                0.9486520290374756,
                -0.03456500172615051,
                -1.0746749639511108
            ],
            "min" : [
                -0.9144759774208069,
                -0.0776439979672432,
                -2.1177539825439453
            ],
            "type" : "VEC3"
        },
        {
            "bufferView" : 17,
            "componentType" : 5126,
            "count" : 1875,
            "type" : "VEC3"
        },
        {
            "bufferView" : 18,
            "componentType" : 5126,
            "count" : 1875,
            "type" : "VEC2"
        },
        {
            "bufferView" : 19,
            "componentType" : 5123,
            "count" : 9756,
            "type" : "SCALAR"
        },
        {
            "bufferView" : 20,
            "componentType" : 5126,
            "count" : 288,
            "max" : [
                0.006790999788790941,
                0.19642700254917145,
                -0.5243579745292664
            ],
            "min" : [
                -0.9132090210914612,
                -0.30000099539756775,
                -0.8320450186729431
            ],
            "type" : "VEC3"
        },
        {
            "bufferView" : 21,
            "componentType" : 5126,
            "count" : 288,
            "type" : "VEC3"
        },
        {
            "bufferView" : 22,
            "componentType" : 5126,
            "count" : 288,
            "type" : "VEC2"
        },
        {
            "bufferView" : 23,
            "componentType" : 5123,
            "count" : 432,
            "type" : "SCALAR"
        },
        {
            "bufferView" : 24,
            "componentType" : 5126,
            "count" : 144,
            "max" : [
                -0.027674999088048935,
                0.16286300122737885,
                -0.4877830147743225
            ],
            "min" : [
                -0.8811669945716858,
                -0.27563899755477905,
                -0.7557839751243591
            ],
            "type" : "VEC3"
        },
        {
            "bufferView" : 25,
            "componentType" : 5126,
            "count" : 144,
            "type" : "VEC3"
        },
        {
            "bufferView" : 26,
            "componentType" : 5126,
            "count" : 144,
            "type" : "VEC2"
        },
        {
            "bufferView" : 27,
            "componentType" : 5123,
            "count" : 420,
            "type" : "SCALAR"
        },
        {
            "bufferView" : 28,
            "componentType" : 5126,
            "count" : 273,
            "max" : [
                0.9486920237541199,
                0.29878801107406616,
                -2.5439999103546143
            ],
            "min" : [
                -0.9153079986572266,
                0.2171880006790161,
                -2.5820000171661377
            ],
            "type" : "VEC3"
        },
        {
            "bufferView" : 29,
            "componentType" : 5126,
            "count" : 273,
            "type" : "VEC3"
        },
        {
            "bufferView" : 30,
            "componentType" : 5126,
            "count" : 273,
            "type" : "VEC2"
        },
        {
            "bufferView" : 31,
            "componentType" : 5123,
            "count" : 492,
            "type" : "SCALAR"
        },
        {
            "bufferView" : 32,
            "componentType" : 5126,
            "count" : 782,
            "max" : [
                0.9486920237541199,
                0.27990901470184326,
                -0.07999999821186066
            ],
            "min" : [
                -0.9153079986572266,
                0.21890799701213837,
                -0.08699999749660492
            ],
            "type" : "VEC3"
        },
        {
            "bufferView" : 33,
            "componentType" : 5126,
            "count" : 782,
            "type" : "VEC3"
        },
        {
            "bufferView" : 34,
            "componentType" : 5126,
            "count" : 782,
            "type" : "VEC2"
        },
        {
            "bufferView" : 35,
            "componentType" : 5123,
            "count" : 1476,
            "type" : "SCALAR"
        }
    ],
    "bufferViews" : [
        {
            "buffer" : 0,
            "byteLength" : 18936,
            "byteOffset" : 0
        },
        {
            "buffer" : 0,
            "byteLength" : 18936,
            "byteOffset" : 18936
        },
        {
            "buffer" : 0,
            "byteLength" : 12624,
            "byteOffset" : 37872
        },
        {
            "buffer" : 0,
            "byteLength" : 6888,
            "byteOffset" : 50496
        },
        {
            "buffer" : 0,
            "byteLength" : 45960,
            "byteOffset" : 57384
        },
        {
            "buffer" : 0,
            "byteLength" : 45960,
            "byteOffset" : 103344
        },
        {
            "buffer" : 0,
            "byteLength" : 30640,
            "byteOffset" : 149304
        },
        {
            "buffer" : 0,
            "byteLength" : 39984,
            "byteOffset" : 179944
        },
        {
            "buffer" : 0,
            "byteLength" : 84792,
            "byteOffset" : 219928
        },
        {
            "buffer" : 0,
            "byteLength" : 84792,
            "byteOffset" : 304720
        },
        {
            "buffer" : 0,
            "byteLength" : 56528,
            "byteOffset" : 389512
        },
        {
            "buffer" : 0,
            "byteLength" : 81720,
            "byteOffset" : 446040
        },
        {
            "buffer" : 0,
            "byteLength" : 44064,
            "byteOffset" : 527760
        },
        {
            "buffer" : 0,
            "byteLength" : 44064,
            "byteOffset" : 571824
        },
        {
            "buffer" : 0,
            "byteLength" : 29376,
            "byteOffset" : 615888
        },
        {
            "buffer" : 0,
            "byteLength" : 38952,
            "byteOffset" : 645264
        },
        {
            "buffer" : 0,
            "byteLength" : 22500,
            "byteOffset" : 684216
        },
        {
            "buffer" : 0,
            "byteLength" : 22500,
            "byteOffset" : 706716
        },
        {
            "buffer" : 0,
            "byteLength" : 15000,
            "byteOffset" : 729216
        },
        {
            "buffer" : 0,
            "byteLength" : 19512,
            "byteOffset" : 744216
        },
        {
            "buffer" : 0,
            "byteLength" : 3456,
            "byteOffset" : 763728
        },
        {
            "buffer" : 0,
            "byteLength" : 3456,
            "byteOffset" : 767184
        },
        {
            "buffer" : 0,
            "byteLength" : 2304,
            "byteOffset" : 770640
        },
        {
            "buffer" : 0,
            "byteLength" : 864,
            "byteOffset" : 772944
        },
        {
            "buffer" : 0,
            "byteLength" : 1728,
            "byteOffset" : 773808
        },
        {
            "buffer" : 0,
            "byteLength" : 1728,
            "byteOffset" : 775536
        },
        {
            "buffer" : 0,
            "byteLength" : 1152,
            "byteOffset" : 777264
        },
        {
            "buffer" : 0,
            "byteLength" : 840,
            "byteOffset" : 778416
        },
        {
            "buffer" : 0,
            "byteLength" : 3276,
            "byteOffset" : 779256
        },
        {
            "buffer" : 0,
            "byteLength" : 3276,
            "byteOffset" : 782532
        },
        {
            "buffer" : 0,
            "byteLength" : 2184,
            "byteOffset" : 785808
        },
        {
            "buffer" : 0,
            "byteLength" : 984,
            "byteOffset" : 787992
        },
        {
            "buffer" : 0,
            "byteLength" : 9384,
            "byteOffset" : 788976
        },
        {
            "buffer" : 0,
            "byteLength" : 9384,
            "byteOffset" : 798360
        },
        {
            "buffer" : 0,
            "byteLength" : 6256,
            "byteOffset" : 807744
        },
        {
            "buffer" : 0,
            "byteLength" : 2952,
            "byteOffset" : 814000
        }
    ],
    "buffers" : [
        {
            "byteLength" : 816952,
            "uri" : "dolap.bin"
        }
    ]
}
