{
    "asset" : {
        "generator" : "Khronos glTF Blender I/O v1.0.5",
        "version" : "2.0"
    },
    "scene" : 0,
    "scenes" : [
        {
            "name" : "Scene",
            "nodes" : [
                0
            ]
        }
    ],
    "nodes" : [
        {
            "mesh" : 0,
            "name" : "Text",
            "rotation" : [
                0.7071067690849304,
                0,
                0,
                0.7071067690849304
            ],
            "translation" : [
                0.1745438575744629,
                1.7905080318450928,
                -0.5390597581863403
            ]
        }
    ],
    "meshes" : [
        {
            "name" : "Text.001",
            "primitives" : [
                {
                    "attributes" : {
                        "POSITION" : 0,
                        "NORMAL" : 1
                    },
                    "indices" : 2
                }
            ]
        }
    ],
    "accessors" : [
        {
            "bufferView" : 0,
            "componentType" : 5126,
            "count" : 4921,
            "max" : [
                1.5425000190734863,
                0.14000000059604645,
                2.009000062942505
            ],
            "min" : [
                -1.4825000762939453,
                -0.14000000059604645,
                -0.4580000340938568
            ],
            "type" : "VEC3"
        },
        {
            "bufferView" : 1,
            "componentType" : 5126,
            "count" : 4921,
            "type" : "VEC3"
        },
        {
            "bufferView" : 2,
            "componentType" : 5123,
            "count" : 12504,
            "type" : "SCALAR"
        }
    ],
    "bufferViews" : [
        {
            "buffer" : 0,
            "byteLength" : 59052,
            "byteOffset" : 0
        },
        {
            "buffer" : 0,
            "byteLength" : 59052,
            "byteOffset" : 59052
        },
        {
            "buffer" : 0,
            "byteLength" : 25008,
            "byteOffset" : 118104
        }
    ],
    "buffers" : [
        {
            "byteLength" : 143112,
            "uri" : "sry.bin"
        }
    ]
}
