{
    "asset" : {
        "generator" : "Khronos glTF Blender I/O v1.0.5",
        "version" : "2.0"
    },
    "scene" : 0,
    "scenes" : [
        {
            "name" : "Scene",
            "nodes" : [
                0,
                1
            ]
        }
    ],
    "nodes" : [
        {
            "mesh" : 0,
            "name" : "\u041a\u0443\u0431.001",
            "scale" : [
                0.009000000543892384,
                1.3000000715255737,
                0.30000001192092896
            ],
            "translation" : [
                0,
                1.3483556509017944,
                0
            ]
        },
        {
            "mesh" : 1,
            "name" : "Cube",
            "scale" : [
                0.9430361986160278,
                1.2816935777664185,
                0.016553329303860664
            ],
            "translation" : [
                0.061070553958415985,
                1.397686243057251,
                -0.09096136689186096
            ]
        }
    ],
    "materials" : [
        {
            "doubleSided" : true,
            "name" : "Material.001",
            "pbrMetallicRoughness" : {
                "baseColorTexture" : {
                    "index" : 0,
                    "texCoord" : 0
                },
                "metallicFactor" : 0,
                "roughnessFactor" : 0.5
            }
        },
        {
            "doubleSided" : true,
            "name" : "Material",
            "pbrMetallicRoughness" : {
                "baseColorTexture" : {
                    "index" : 1,
                    "texCoord" : 0
                },
                "metallicFactor" : 0,
                "roughnessFactor" : 0.5
            }
        }
    ],
    "meshes" : [
        {
            "name" : "\u041a\u0443\u0431.013",
            "primitives" : [
                {
                    "attributes" : {
                        "POSITION" : 0,
                        "NORMAL" : 1,
                        "TEXCOORD_0" : 2,
                        "TEXCOORD_1" : 3,
                        "TEXCOORD_2" : 4
                    },
                    "indices" : 5,
                    "material" : 0
                }
            ]
        },
        {
            "name" : "Cube",
            "primitives" : [
                {
                    "attributes" : {
                        "POSITION" : 6,
                        "NORMAL" : 7,
                        "TEXCOORD_0" : 8
                    },
                    "indices" : 9,
                    "material" : 1
                }
            ]
        }
    ],
    "textures" : [
        {
            "source" : 0
        },
        {
            "source" : 0
        }
    ],
    "images" : [
        {
            "mimeType" : "image/png",
            "name" : "red",
            "uri" : "red.png"
        }
    ],
    "accessors" : [
        {
            "bufferView" : 0,
            "componentType" : 5126,
            "count" : 25983,
            "max" : [
                111.537841796875,
                1.0366573333740234,
                16.126575469970703
            ],
            "min" : [
                -255.6513671875,
                -0.9633429646492004,
                -0.35694408416748047
            ],
            "type" : "VEC3"
        },
        {
            "bufferView" : 1,
            "componentType" : 5126,
            "count" : 25983,
            "type" : "VEC3"
        },
        {
            "bufferView" : 2,
            "componentType" : 5126,
            "count" : 25983,
            "type" : "VEC2"
        },
        {
            "bufferView" : 3,
            "componentType" : 5126,
            "count" : 25983,
            "type" : "VEC2"
        },
        {
            "bufferView" : 4,
            "componentType" : 5126,
            "count" : 25983,
            "type" : "VEC2"
        },
        {
            "bufferView" : 5,
            "componentType" : 5123,
            "count" : 96348,
            "type" : "SCALAR"
        },
        {
            "bufferView" : 6,
            "componentType" : 5126,
            "count" : 24,
            "max" : [
                1,
                1,
                1
            ],
            "min" : [
                -1,
                -1,
                -1
            ],
            "type" : "VEC3"
        },
        {
            "bufferView" : 7,
            "componentType" : 5126,
            "count" : 24,
            "type" : "VEC3"
        },
        {
            "bufferView" : 8,
            "componentType" : 5126,
            "count" : 24,
            "type" : "VEC2"
        },
        {
            "bufferView" : 9,
            "componentType" : 5123,
            "count" : 36,
            "type" : "SCALAR"
        }
    ],
    "bufferViews" : [
        {
            "buffer" : 0,
            "byteLength" : 311796,
            "byteOffset" : 0
        },
        {
            "buffer" : 0,
            "byteLength" : 311796,
            "byteOffset" : 311796
        },
        {
            "buffer" : 0,
            "byteLength" : 207864,
            "byteOffset" : 623592
        },
        {
            "buffer" : 0,
            "byteLength" : 207864,
            "byteOffset" : 831456
        },
        {
            "buffer" : 0,
            "byteLength" : 207864,
            "byteOffset" : 1039320
        },
        {
            "buffer" : 0,
            "byteLength" : 192696,
            "byteOffset" : 1247184
        },
        {
            "buffer" : 0,
            "byteLength" : 288,
            "byteOffset" : 1439880
        },
        {
            "buffer" : 0,
            "byteLength" : 288,
            "byteOffset" : 1440168
        },
        {
            "buffer" : 0,
            "byteLength" : 192,
            "byteOffset" : 1440456
        },
        {
            "buffer" : 0,
            "byteLength" : 72,
            "byteOffset" : 1440648
        }
    ],
    "buffers" : [
        {
            "byteLength" : 1440720,
            "uri" : "dolap.bin"
        }
    ]
}
