{
    "asset" : {
        "generator" : "Khronos glTF Blender I/O v1.0.5",
        "version" : "2.0"
    },
    "scene" : 0,
    "scenes" : [
        {
            "name" : "Scene",
            "nodes" : [
                0,
                1,
                2,
                3,
                4
            ]
        }
    ],
    "nodes" : [
        {
            "name" : "Light",
            "rotation" : [
                0.16907575726509094,
                0.7558803558349609,
                -0.27217137813568115,
                0.570947527885437
            ],
            "translation" : [
                4.076245307922363,
                5.903861999511719,
                -1.0054539442062378
            ]
        },
        {
            "name" : "Camera",
            "rotation" : [
                0.483536034822464,
                0.33687159419059753,
                -0.20870360732078552,
                0.7804827094078064
            ],
            "translation" : [
                7.358891487121582,
                4.958309173583984,
                6.925790786743164
            ]
        },
        {
            "name" : "Light.001",
            "rotation" : [
                0.5232754945755005,
                0.34203392267227173,
                -0.7269423604011536,
                0.284166157245636
            ],
            "translation" : [
                4.076245307922363,
                5.903862476348877,
                -1.0054532289505005
            ]
        },
        {
            "name" : "Camera.001",
            "rotation" : [
                0.8937963247299194,
                0.09062855690717697,
                -0.3857799172401428,
                0.20997287333011627
            ],
            "translation" : [
                7.358891487121582,
                4.958308696746826,
                6.925792217254639
            ]
        },
        {
            "mesh" : 0,
            "name" : "\u041a\u0443\u0431.001_\u041a\u0443\u0431.013",
            "rotation" : [
                1,
                0,
                0,
                -1.3435884227419592e-07
            ]
        }
    ],
    "materials" : [
        {
            "doubleSided" : true,
            "name" : "\u041b\u0414\u0421\u041f.001",
            "pbrMetallicRoughness" : {
                "baseColorTexture" : {
                    "index" : 0,
                    "texCoord" : 0
                },
                "metallicFactor" : 0,
                "roughnessFactor" : 0.4000000059604645
            }
        },
        {
            "doubleSided" : true,
            "name" : "Galvanized_Steel",
            "pbrMetallicRoughness" : {
                "baseColorFactor" : [
                    0.800000011920929,
                    0.800000011920929,
                    0.800000011920929,
                    1
                ],
                "metallicFactor" : 0,
                "roughnessFactor" : 0.5
            }
        },
        {
            "doubleSided" : true,
            "name" : "wire_115115115",
            "pbrMetallicRoughness" : {
                "baseColorFactor" : [
                    0,
                    0,
                    0,
                    1
                ],
                "metallicFactor" : 0,
                "roughnessFactor" : 0.3378378450870514
            }
        },
        {
            "doubleSided" : true,
            "name" : "Galvanized_Steel.001",
            "pbrMetallicRoughness" : {
                "baseColorFactor" : [
                    0.800000011920929,
                    0.800000011920929,
                    0.800000011920929,
                    1
                ],
                "metallicFactor" : 0,
                "roughnessFactor" : 0.5
            }
        },
        {
            "doubleSided" : true,
            "name" : "\u0421\u0442\u0430\u043b\u044c.002",
            "pbrMetallicRoughness" : {
                "baseColorFactor" : [
                    0.800000011920929,
                    0.800000011920929,
                    0.800000011920929,
                    1
                ],
                "metallicFactor" : 0,
                "roughnessFactor" : 0.4000000059604645
            }
        },
        {
            "doubleSided" : true,
            "name" : "Galvanized_Steel.002",
            "pbrMetallicRoughness" : {
                "baseColorFactor" : [
                    0.800000011920929,
                    0.800000011920929,
                    0.800000011920929,
                    1
                ],
                "metallicFactor" : 0,
                "roughnessFactor" : 0.5
            }
        },
        {
            "doubleSided" : true,
            "name" : "default.001",
            "pbrMetallicRoughness" : {
                "baseColorFactor" : [
                    0.800000011920929,
                    0.800000011920929,
                    0.800000011920929,
                    1
                ],
                "metallicFactor" : 0,
                "roughnessFactor" : 0.5
            }
        },
        {
            "doubleSided" : true,
            "name" : "\u0410\u043d\u043e\u0434\u0438\u0440\u043e\u0432\u0430\u043d\u043d\u043e\u0435_\u0441\u0435\u0440\u0435\u0431\u0440\u043e",
            "pbrMetallicRoughness" : {
                "baseColorFactor" : [
                    0.800000011920929,
                    0.800000011920929,
                    0.800000011920929,
                    1
                ],
                "metallicFactor" : 0,
                "roughnessFactor" : 0.5
            }
        },
        {
            "doubleSided" : true,
            "name" : "\u0410\u043d\u043e\u0434\u0438\u0440\u043e\u0432\u0430\u043d\u043d\u043e\u0435_\u0441\u0435\u0440\u0435\u0431\u0440\u043e.001",
            "pbrMetallicRoughness" : {
                "baseColorFactor" : [
                    0.800000011920929,
                    0.800000011920929,
                    0.800000011920929,
                    1
                ],
                "metallicFactor" : 0,
                "roughnessFactor" : 0.5
            }
        }
    ],
    "meshes" : [
        {
            "name" : "\u041a\u0443\u0431.001_\u041a\u0443\u0431.013",
            "primitives" : [
                {
                    "attributes" : {
                        "POSITION" : 0,
                        "NORMAL" : 1,
                        "TEXCOORD_0" : 2
                    },
                    "indices" : 3,
                    "material" : 0
                },
                {
                    "attributes" : {
                        "POSITION" : 4,
                        "NORMAL" : 5,
                        "TEXCOORD_0" : 6
                    },
                    "indices" : 7,
                    "material" : 1
                },
                {
                    "attributes" : {
                        "POSITION" : 8,
                        "NORMAL" : 9,
                        "TEXCOORD_0" : 10
                    },
                    "indices" : 11,
                    "material" : 2
                },
                {
                    "attributes" : {
                        "POSITION" : 12,
                        "NORMAL" : 13,
                        "TEXCOORD_0" : 14
                    },
                    "indices" : 15,
                    "material" : 3
                },
                {
                    "attributes" : {
                        "POSITION" : 16,
                        "NORMAL" : 17,
                        "TEXCOORD_0" : 18
                    },
                    "indices" : 19,
                    "material" : 4
                },
                {
                    "attributes" : {
                        "POSITION" : 20,
                        "NORMAL" : 21,
                        "TEXCOORD_0" : 22
                    },
                    "indices" : 23,
                    "material" : 5
                },
                {
                    "attributes" : {
                        "POSITION" : 24,
                        "NORMAL" : 25,
                        "TEXCOORD_0" : 26
                    },
                    "indices" : 27,
                    "material" : 6
                },
                {
                    "attributes" : {
                        "POSITION" : 28,
                        "NORMAL" : 29,
                        "TEXCOORD_0" : 30
                    },
                    "indices" : 31,
                    "material" : 7
                },
                {
                    "attributes" : {
                        "POSITION" : 32,
                        "NORMAL" : 33,
                        "TEXCOORD_0" : 34
                    },
                    "indices" : 35,
                    "material" : 8
                }
            ]
        }
    ],
    "textures" : [
        {
            "source" : 0
        }
    ],
    "images" : [
        {
            "mimeType" : "image/png",
            "name" : "red",
            "uri" : "red.png"
        }
    ],
    "accessors" : [
        {
            "bufferView" : 0,
            "componentType" : 5126,
            "count" : 1936,
            "max" : [
                0.9666919708251953,
                0,
                0.30000099539756775
            ],
            "min" : [
                -0.9333080053329468,
                -2.5999999046325684,
                -0.30000001192092896
            ],
            "type" : "VEC3"
        },
        {
            "bufferView" : 1,
            "componentType" : 5126,
            "count" : 1936,
            "type" : "VEC3"
        },
        {
            "bufferView" : 2,
            "componentType" : 5126,
            "count" : 1936,
            "type" : "VEC2"
        },
        {
            "bufferView" : 3,
            "componentType" : 5123,
            "count" : 3444,
            "type" : "SCALAR"
        },
        {
            "bufferView" : 4,
            "componentType" : 5126,
            "count" : 3836,
            "max" : [
                -2.33794903755188,
                -0.008686999790370464,
                -4.644504070281982
            ],
            "min" : [
                -2.338007926940918,
                -0.009147999808192253,
                -4.645052909851074
            ],
            "type" : "VEC3"
        },
        {
            "bufferView" : 5,
            "componentType" : 5126,
            "count" : 3836,
            "type" : "VEC3"
        },
        {
            "bufferView" : 6,
            "componentType" : 5126,
            "count" : 3836,
            "type" : "VEC2"
        },
        {
            "bufferView" : 7,
            "componentType" : 5123,
            "count" : 19992,
            "type" : "SCALAR"
        },
        {
            "bufferView" : 8,
            "componentType" : 5126,
            "count" : 7148,
            "max" : [
                -2.3379530906677246,
                -0.00868299975991249,
                -4.644501209259033
            ],
            "min" : [
                -2.3380110263824463,
                -0.009151999838650227,
                -4.645055770874023
            ],
            "type" : "VEC3"
        },
        {
            "bufferView" : 9,
            "componentType" : 5126,
            "count" : 7148,
            "type" : "VEC3"
        },
        {
            "bufferView" : 10,
            "componentType" : 5126,
            "count" : 7148,
            "type" : "VEC2"
        },
        {
            "bufferView" : 11,
            "componentType" : 5123,
            "count" : 40860,
            "type" : "SCALAR"
        },
        {
            "bufferView" : 12,
            "componentType" : 5126,
            "count" : 3672,
            "max" : [
                0.9486920237541199,
                -1.0764390230178833,
                0.30000099539756775
            ],
            "min" : [
                -0.9113500118255615,
                -2.2139999866485596,
                0.0359559990465641
            ],
            "type" : "VEC3"
        },
        {
            "bufferView" : 13,
            "componentType" : 5126,
            "count" : 3672,
            "type" : "VEC3"
        },
        {
            "bufferView" : 14,
            "componentType" : 5126,
            "count" : 3672,
            "type" : "VEC2"
        },
        {
            "bufferView" : 15,
            "componentType" : 5123,
            "count" : 19476,
            "type" : "SCALAR"
        },
        {
            "bufferView" : 16,
            "componentType" : 5126,
            "count" : 2290,
            "max" : [
                0.9486520290374756,
                -1.0746749639511108,
                0.0776439979672432
            ],
            "min" : [
                -0.9144759774208069,
                -2.1177539825439453,
                0.03456500172615051
            ],
            "type" : "VEC3"
        },
        {
            "bufferView" : 17,
            "componentType" : 5126,
            "count" : 2290,
            "type" : "VEC3"
        },
        {
            "bufferView" : 18,
            "componentType" : 5126,
            "count" : 2290,
            "type" : "VEC2"
        },
        {
            "bufferView" : 19,
            "componentType" : 5123,
            "count" : 9756,
            "type" : "SCALAR"
        },
        {
            "bufferView" : 20,
            "componentType" : 5126,
            "count" : 312,
            "max" : [
                0.006790999788790941,
                -0.5243579745292664,
                0.30000099539756775
            ],
            "min" : [
                -0.9132090210914612,
                -0.8320450186729431,
                -0.19642700254917145
            ],
            "type" : "VEC3"
        },
        {
            "bufferView" : 21,
            "componentType" : 5126,
            "count" : 312,
            "type" : "VEC3"
        },
        {
            "bufferView" : 22,
            "componentType" : 5126,
            "count" : 312,
            "type" : "VEC2"
        },
        {
            "bufferView" : 23,
            "componentType" : 5123,
            "count" : 432,
            "type" : "SCALAR"
        },
        {
            "bufferView" : 24,
            "componentType" : 5126,
            "count" : 198,
            "max" : [
                -0.027674999088048935,
                -0.4877830147743225,
                0.27563899755477905
            ],
            "min" : [
                -0.8811669945716858,
                -0.7557839751243591,
                -0.16286300122737885
            ],
            "type" : "VEC3"
        },
        {
            "bufferView" : 25,
            "componentType" : 5126,
            "count" : 198,
            "type" : "VEC3"
        },
        {
            "bufferView" : 26,
            "componentType" : 5126,
            "count" : 198,
            "type" : "VEC2"
        },
        {
            "bufferView" : 27,
            "componentType" : 5123,
            "count" : 420,
            "type" : "SCALAR"
        },
        {
            "bufferView" : 28,
            "componentType" : 5126,
            "count" : 309,
            "max" : [
                0.9486920237541199,
                -2.5439999103546143,
                -0.2171880006790161
            ],
            "min" : [
                -0.9153079986572266,
                -2.5820000171661377,
                -0.29878801107406616
            ],
            "type" : "VEC3"
        },
        {
            "bufferView" : 29,
            "componentType" : 5126,
            "count" : 309,
            "type" : "VEC3"
        },
        {
            "bufferView" : 30,
            "componentType" : 5126,
            "count" : 309,
            "type" : "VEC2"
        },
        {
            "bufferView" : 31,
            "componentType" : 5123,
            "count" : 492,
            "type" : "SCALAR"
        },
        {
            "bufferView" : 32,
            "componentType" : 5126,
            "count" : 1271,
            "max" : [
                0.9486920237541199,
                -0.07999999821186066,
                -0.21890799701213837
            ],
            "min" : [
                -0.9153079986572266,
                -0.08699999749660492,
                -0.27990901470184326
            ],
            "type" : "VEC3"
        },
        {
            "bufferView" : 33,
            "componentType" : 5126,
            "count" : 1271,
            "type" : "VEC3"
        },
        {
            "bufferView" : 34,
            "componentType" : 5126,
            "count" : 1271,
            "type" : "VEC2"
        },
        {
            "bufferView" : 35,
            "componentType" : 5123,
            "count" : 1476,
            "type" : "SCALAR"
        }
    ],
    "bufferViews" : [
        {
            "buffer" : 0,
            "byteLength" : 23232,
            "byteOffset" : 0
        },
        {
            "buffer" : 0,
            "byteLength" : 23232,
            "byteOffset" : 23232
        },
        {
            "buffer" : 0,
            "byteLength" : 15488,
            "byteOffset" : 46464
        },
        {
            "buffer" : 0,
            "byteLength" : 6888,
            "byteOffset" : 61952
        },
        {
            "buffer" : 0,
            "byteLength" : 46032,
            "byteOffset" : 68840
        },
        {
            "buffer" : 0,
            "byteLength" : 46032,
            "byteOffset" : 114872
        },
        {
            "buffer" : 0,
            "byteLength" : 30688,
            "byteOffset" : 160904
        },
        {
            "buffer" : 0,
            "byteLength" : 39984,
            "byteOffset" : 191592
        },
        {
            "buffer" : 0,
            "byteLength" : 85776,
            "byteOffset" : 231576
        },
        {
            "buffer" : 0,
            "byteLength" : 85776,
            "byteOffset" : 317352
        },
        {
            "buffer" : 0,
            "byteLength" : 57184,
            "byteOffset" : 403128
        },
        {
            "buffer" : 0,
            "byteLength" : 81720,
            "byteOffset" : 460312
        },
        {
            "buffer" : 0,
            "byteLength" : 44064,
            "byteOffset" : 542032
        },
        {
            "buffer" : 0,
            "byteLength" : 44064,
            "byteOffset" : 586096
        },
        {
            "buffer" : 0,
            "byteLength" : 29376,
            "byteOffset" : 630160
        },
        {
            "buffer" : 0,
            "byteLength" : 38952,
            "byteOffset" : 659536
        },
        {
            "buffer" : 0,
            "byteLength" : 27480,
            "byteOffset" : 698488
        },
        {
            "buffer" : 0,
            "byteLength" : 27480,
            "byteOffset" : 725968
        },
        {
            "buffer" : 0,
            "byteLength" : 18320,
            "byteOffset" : 753448
        },
        {
            "buffer" : 0,
            "byteLength" : 19512,
            "byteOffset" : 771768
        },
        {
            "buffer" : 0,
            "byteLength" : 3744,
            "byteOffset" : 791280
        },
        {
            "buffer" : 0,
            "byteLength" : 3744,
            "byteOffset" : 795024
        },
        {
            "buffer" : 0,
            "byteLength" : 2496,
            "byteOffset" : 798768
        },
        {
            "buffer" : 0,
            "byteLength" : 864,
            "byteOffset" : 801264
        },
        {
            "buffer" : 0,
            "byteLength" : 2376,
            "byteOffset" : 802128
        },
        {
            "buffer" : 0,
            "byteLength" : 2376,
            "byteOffset" : 804504
        },
        {
            "buffer" : 0,
            "byteLength" : 1584,
            "byteOffset" : 806880
        },
        {
            "buffer" : 0,
            "byteLength" : 840,
            "byteOffset" : 808464
        },
        {
            "buffer" : 0,
            "byteLength" : 3708,
            "byteOffset" : 809304
        },
        {
            "buffer" : 0,
            "byteLength" : 3708,
            "byteOffset" : 813012
        },
        {
            "buffer" : 0,
            "byteLength" : 2472,
            "byteOffset" : 816720
        },
        {
            "buffer" : 0,
            "byteLength" : 984,
            "byteOffset" : 819192
        },
        {
            "buffer" : 0,
            "byteLength" : 15252,
            "byteOffset" : 820176
        },
        {
            "buffer" : 0,
            "byteLength" : 15252,
            "byteOffset" : 835428
        },
        {
            "buffer" : 0,
            "byteLength" : 10168,
            "byteOffset" : 850680
        },
        {
            "buffer" : 0,
            "byteLength" : 2952,
            "byteOffset" : 860848
        }
    ],
    "buffers" : [
        {
            "byteLength" : 863800,
            "uri" : "dolap.bin"
        }
    ]
}
