{
    "asset" : {
        "generator" : "Khronos glTF Blender I/O v1.0.5",
        "version" : "2.0"
    },
    "scene" : 0,
    "scenes" : [
        {
            "name" : "Scene",
            "nodes" : [
                0,
                1,
                2
            ]
        }
    ],
    "nodes" : [
        {
            "name" : "Light",
            "rotation" : [
                0.16907575726509094,
                0.7558803558349609,
                -0.27217137813568115,
                0.570947527885437
            ],
            "translation" : [
                4.076245307922363,
                5.903861999511719,
                -1.0054539442062378
            ]
        },
        {
            "name" : "Camera",
            "rotation" : [
                0.483536034822464,
                0.33687159419059753,
                -0.20870360732078552,
                0.7804827094078064
            ],
            "translation" : [
                7.358891487121582,
                4.958309173583984,
                6.925790786743164
            ]
        },
        {
            "mesh" : 0,
            "name" : "Cube.001",
            "rotation" : [
                0.7071067690849304,
                0,
                0,
                0.7071067690849304
            ]
        }
    ],
    "materials" : [
        {
            "doubleSided" : true,
            "name" : "Material.001",
            "pbrMetallicRoughness" : {
                "baseColorTexture" : {
                    "index" : 0,
                    "texCoord" : 0
                },
                "metallicFactor" : 0,
                "roughnessFactor" : 0.5
            }
        },
        {
            "doubleSided" : true,
            "name" : "\u041b\u0414\u0421\u041f.001",
            "pbrMetallicRoughness" : {
                "baseColorTexture" : {
                    "index" : 1,
                    "texCoord" : 0
                },
                "metallicFactor" : 0,
                "roughnessFactor" : 0.5
            }
        },
        {
            "doubleSided" : true,
            "name" : "Galvanized_Steel",
            "pbrMetallicRoughness" : {
                "baseColorFactor" : [
                    0.800000011920929,
                    0.800000011920929,
                    0.800000011920929,
                    1
                ],
                "metallicFactor" : 0,
                "roughnessFactor" : 0.5
            }
        },
        {
            "doubleSided" : true,
            "name" : "wire_115115115",
            "pbrMetallicRoughness" : {
                "baseColorFactor" : [
                    0,
                    0,
                    0,
                    1
                ],
                "metallicFactor" : 0,
                "roughnessFactor" : 0.3378378450870514
            }
        },
        {
            "doubleSided" : true,
            "name" : "Galvanized_Steel.001",
            "pbrMetallicRoughness" : {
                "baseColorFactor" : [
                    0.800000011920929,
                    0.800000011920929,
                    0.800000011920929,
                    1
                ],
                "metallicFactor" : 0,
                "roughnessFactor" : 0.5
            }
        },
        {
            "doubleSided" : true,
            "name" : "\u0421\u0442\u0430\u043b\u044c.002",
            "pbrMetallicRoughness" : {
                "baseColorFactor" : [
                    0.800000011920929,
                    0.800000011920929,
                    0.800000011920929,
                    1
                ],
                "metallicFactor" : 0,
                "roughnessFactor" : 0.4000000059604645
            }
        },
        {
            "doubleSided" : true,
            "name" : "Galvanized_Steel.002",
            "pbrMetallicRoughness" : {
                "baseColorFactor" : [
                    0.800000011920929,
                    0.800000011920929,
                    0.800000011920929,
                    1
                ],
                "metallicFactor" : 0,
                "roughnessFactor" : 0.5
            }
        },
        {
            "doubleSided" : true,
            "name" : "default.001",
            "pbrMetallicRoughness" : {
                "baseColorFactor" : [
                    0.800000011920929,
                    0.800000011920929,
                    0.800000011920929,
                    1
                ],
                "metallicFactor" : 0,
                "roughnessFactor" : 0.5
            }
        },
        {
            "doubleSided" : true,
            "name" : "\u0410\u043d\u043e\u0434\u0438\u0440\u043e\u0432\u0430\u043d\u043d\u043e\u0435_\u0441\u0435\u0440\u0435\u0431\u0440\u043e",
            "pbrMetallicRoughness" : {
                "baseColorFactor" : [
                    0.800000011920929,
                    0.800000011920929,
                    0.800000011920929,
                    1
                ],
                "metallicFactor" : 0,
                "roughnessFactor" : 0.5
            }
        },
        {
            "doubleSided" : true,
            "name" : "\u0410\u043d\u043e\u0434\u0438\u0440\u043e\u0432\u0430\u043d\u043d\u043e\u0435_\u0441\u0435\u0440\u0435\u0431\u0440\u043e.001",
            "pbrMetallicRoughness" : {
                "baseColorFactor" : [
                    0.800000011920929,
                    0.800000011920929,
                    0.800000011920929,
                    1
                ],
                "metallicFactor" : 0,
                "roughnessFactor" : 0.5
            }
        }
    ],
    "meshes" : [
        {
            "name" : "Cube.001",
            "primitives" : [
                {
                    "attributes" : {
                        "POSITION" : 0,
                        "NORMAL" : 1,
                        "TEXCOORD_0" : 2
                    },
                    "indices" : 3,
                    "material" : 0
                },
                {
                    "attributes" : {
                        "POSITION" : 4,
                        "NORMAL" : 5,
                        "TEXCOORD_0" : 6
                    },
                    "indices" : 7,
                    "material" : 1
                },
                {
                    "attributes" : {
                        "POSITION" : 8,
                        "NORMAL" : 9,
                        "TEXCOORD_0" : 10
                    },
                    "indices" : 11,
                    "material" : 2
                },
                {
                    "attributes" : {
                        "POSITION" : 12,
                        "NORMAL" : 13,
                        "TEXCOORD_0" : 14
                    },
                    "indices" : 15,
                    "material" : 3
                },
                {
                    "attributes" : {
                        "POSITION" : 16,
                        "NORMAL" : 17,
                        "TEXCOORD_0" : 18
                    },
                    "indices" : 19,
                    "material" : 4
                },
                {
                    "attributes" : {
                        "POSITION" : 20,
                        "NORMAL" : 21,
                        "TEXCOORD_0" : 22
                    },
                    "indices" : 23,
                    "material" : 5
                },
                {
                    "attributes" : {
                        "POSITION" : 24,
                        "NORMAL" : 25,
                        "TEXCOORD_0" : 26
                    },
                    "indices" : 27,
                    "material" : 6
                },
                {
                    "attributes" : {
                        "POSITION" : 28,
                        "NORMAL" : 29,
                        "TEXCOORD_0" : 30
                    },
                    "indices" : 31,
                    "material" : 7
                },
                {
                    "attributes" : {
                        "POSITION" : 32,
                        "NORMAL" : 33,
                        "TEXCOORD_0" : 34
                    },
                    "indices" : 35,
                    "material" : 8
                },
                {
                    "attributes" : {
                        "POSITION" : 36,
                        "NORMAL" : 37,
                        "TEXCOORD_0" : 38
                    },
                    "indices" : 39,
                    "material" : 9
                }
            ]
        }
    ],
    "textures" : [
        {
            "source" : 0
        },
        {
            "source" : 0
        }
    ],
    "images" : [
        {
            "mimeType" : "image/png",
            "name" : "red",
            "uri" : "red.png"
        }
    ],
    "accessors" : [
        {
            "bufferView" : 0,
            "componentType" : 5126,
            "count" : 24,
            "max" : [
                1.0041069984436035,
                -0.07440800219774246,
                -0.11599300056695938
            ],
            "min" : [
                -0.8819659948348999,
                -0.10751499980688095,
                -2.679379940032959
            ],
            "type" : "VEC3"
        },
        {
            "bufferView" : 1,
            "componentType" : 5126,
            "count" : 24,
            "type" : "VEC3"
        },
        {
            "bufferView" : 2,
            "componentType" : 5126,
            "count" : 24,
            "type" : "VEC2"
        },
        {
            "bufferView" : 3,
            "componentType" : 5123,
            "count" : 36,
            "type" : "SCALAR"
        },
        {
            "bufferView" : 4,
            "componentType" : 5126,
            "count" : 1602,
            "max" : [
                1.0038410425186157,
                0.492917001247406,
                -0.0960099995136261
            ],
            "min" : [
                -0.8961600065231323,
                -0.10708300024271011,
                -2.696010112762451
            ],
            "type" : "VEC3"
        },
        {
            "bufferView" : 5,
            "componentType" : 5126,
            "count" : 1602,
            "type" : "VEC3"
        },
        {
            "bufferView" : 6,
            "componentType" : 5126,
            "count" : 1602,
            "type" : "VEC2"
        },
        {
            "bufferView" : 7,
            "componentType" : 5123,
            "count" : 3444,
            "type" : "SCALAR"
        },
        {
            "bufferView" : 8,
            "componentType" : 5126,
            "count" : 3830,
            "max" : [
                -2.3008010387420654,
                4.837971210479736,
                -0.10469699651002884
            ],
            "min" : [
                -2.3008599281311035,
                4.83742094039917,
                -0.10515700280666351
            ],
            "type" : "VEC3"
        },
        {
            "bufferView" : 9,
            "componentType" : 5126,
            "count" : 3830,
            "type" : "VEC3"
        },
        {
            "bufferView" : 10,
            "componentType" : 5126,
            "count" : 3830,
            "type" : "VEC2"
        },
        {
            "bufferView" : 11,
            "componentType" : 5123,
            "count" : 19992,
            "type" : "SCALAR"
        },
        {
            "bufferView" : 12,
            "componentType" : 5126,
            "count" : 7066,
            "max" : [
                -2.30080509185791,
                4.837973117828369,
                -0.10469300299882889
            ],
            "min" : [
                -2.300863027572632,
                4.837419033050537,
                -0.10516200214624405
            ],
            "type" : "VEC3"
        },
        {
            "bufferView" : 13,
            "componentType" : 5126,
            "count" : 7066,
            "type" : "VEC3"
        },
        {
            "bufferView" : 14,
            "componentType" : 5126,
            "count" : 7066,
            "type" : "VEC2"
        },
        {
            "bufferView" : 15,
            "componentType" : 5123,
            "count" : 40860,
            "type" : "SCALAR"
        },
        {
            "bufferView" : 16,
            "componentType" : 5126,
            "count" : 4512,
            "max" : [
                0.9858409762382507,
                0.15696200728416443,
                -1.172448992729187
            ],
            "min" : [
                -0.8742020130157471,
                -0.10708300024271011,
                -2.3100099563598633
            ],
            "type" : "VEC3"
        },
        {
            "bufferView" : 17,
            "componentType" : 5126,
            "count" : 4512,
            "type" : "VEC3"
        },
        {
            "bufferView" : 18,
            "componentType" : 5126,
            "count" : 4512,
            "type" : "VEC2"
        },
        {
            "bufferView" : 19,
            "componentType" : 5123,
            "count" : 19476,
            "type" : "SCALAR"
        },
        {
            "bufferView" : 20,
            "componentType" : 5126,
            "count" : 1632,
            "max" : [
                0.98580002784729,
                0.15835200250148773,
                -1.170685052871704
            ],
            "min" : [
                -0.8773279786109924,
                0.11527299880981445,
                -2.213763952255249
            ],
            "type" : "VEC3"
        },
        {
            "bufferView" : 21,
            "componentType" : 5126,
            "count" : 1632,
            "type" : "VEC3"
        },
        {
            "bufferView" : 22,
            "componentType" : 5126,
            "count" : 1632,
            "type" : "VEC2"
        },
        {
            "bufferView" : 23,
            "componentType" : 5123,
            "count" : 9756,
            "type" : "SCALAR"
        },
        {
            "bufferView" : 24,
            "componentType" : 5126,
            "count" : 288,
            "max" : [
                0.043939001858234406,
                0.3893440067768097,
                -0.6203680038452148
            ],
            "min" : [
                -0.8760610222816467,
                -0.10708300024271011,
                -0.9280549883842468
            ],
            "type" : "VEC3"
        },
        {
            "bufferView" : 25,
            "componentType" : 5126,
            "count" : 288,
            "type" : "VEC3"
        },
        {
            "bufferView" : 26,
            "componentType" : 5126,
            "count" : 288,
            "type" : "VEC2"
        },
        {
            "bufferView" : 27,
            "componentType" : 5123,
            "count" : 432,
            "type" : "SCALAR"
        },
        {
            "bufferView" : 28,
            "componentType" : 5126,
            "count" : 144,
            "max" : [
                0.009472999721765518,
                0.3557800054550171,
                -0.5837939977645874
            ],
            "min" : [
                -0.8440189957618713,
                -0.0827220007777214,
                -0.8517940044403076
            ],
            "type" : "VEC3"
        },
        {
            "bufferView" : 29,
            "componentType" : 5126,
            "count" : 144,
            "type" : "VEC3"
        },
        {
            "bufferView" : 30,
            "componentType" : 5126,
            "count" : 144,
            "type" : "VEC2"
        },
        {
            "bufferView" : 31,
            "componentType" : 5123,
            "count" : 420,
            "type" : "SCALAR"
        },
        {
            "bufferView" : 32,
            "componentType" : 5126,
            "count" : 278,
            "max" : [
                0.9858409762382507,
                0.4917060136795044,
                -2.640010118484497
            ],
            "min" : [
                -0.8781589865684509,
                0.41010499000549316,
                -2.6780099868774414
            ],
            "type" : "VEC3"
        },
        {
            "bufferView" : 33,
            "componentType" : 5126,
            "count" : 278,
            "type" : "VEC3"
        },
        {
            "bufferView" : 34,
            "componentType" : 5126,
            "count" : 278,
            "type" : "VEC2"
        },
        {
            "bufferView" : 35,
            "componentType" : 5123,
            "count" : 492,
            "type" : "SCALAR"
        },
        {
            "bufferView" : 36,
            "componentType" : 5126,
            "count" : 784,
            "max" : [
                0.9858400225639343,
                0.4728260040283203,
                -0.17600999772548676
            ],
            "min" : [
                -0.8781599998474121,
                0.4118250012397766,
                -0.18300999701023102
            ],
            "type" : "VEC3"
        },
        {
            "bufferView" : 37,
            "componentType" : 5126,
            "count" : 784,
            "type" : "VEC3"
        },
        {
            "bufferView" : 38,
            "componentType" : 5126,
            "count" : 784,
            "type" : "VEC2"
        },
        {
            "bufferView" : 39,
            "componentType" : 5123,
            "count" : 1476,
            "type" : "SCALAR"
        }
    ],
    "bufferViews" : [
        {
            "buffer" : 0,
            "byteLength" : 288,
            "byteOffset" : 0
        },
        {
            "buffer" : 0,
            "byteLength" : 288,
            "byteOffset" : 288
        },
        {
            "buffer" : 0,
            "byteLength" : 192,
            "byteOffset" : 576
        },
        {
            "buffer" : 0,
            "byteLength" : 72,
            "byteOffset" : 768
        },
        {
            "buffer" : 0,
            "byteLength" : 19224,
            "byteOffset" : 840
        },
        {
            "buffer" : 0,
            "byteLength" : 19224,
            "byteOffset" : 20064
        },
        {
            "buffer" : 0,
            "byteLength" : 12816,
            "byteOffset" : 39288
        },
        {
            "buffer" : 0,
            "byteLength" : 6888,
            "byteOffset" : 52104
        },
        {
            "buffer" : 0,
            "byteLength" : 45960,
            "byteOffset" : 58992
        },
        {
            "buffer" : 0,
            "byteLength" : 45960,
            "byteOffset" : 104952
        },
        {
            "buffer" : 0,
            "byteLength" : 30640,
            "byteOffset" : 150912
        },
        {
            "buffer" : 0,
            "byteLength" : 39984,
            "byteOffset" : 181552
        },
        {
            "buffer" : 0,
            "byteLength" : 84792,
            "byteOffset" : 221536
        },
        {
            "buffer" : 0,
            "byteLength" : 84792,
            "byteOffset" : 306328
        },
        {
            "buffer" : 0,
            "byteLength" : 56528,
            "byteOffset" : 391120
        },
        {
            "buffer" : 0,
            "byteLength" : 81720,
            "byteOffset" : 447648
        },
        {
            "buffer" : 0,
            "byteLength" : 54144,
            "byteOffset" : 529368
        },
        {
            "buffer" : 0,
            "byteLength" : 54144,
            "byteOffset" : 583512
        },
        {
            "buffer" : 0,
            "byteLength" : 36096,
            "byteOffset" : 637656
        },
        {
            "buffer" : 0,
            "byteLength" : 38952,
            "byteOffset" : 673752
        },
        {
            "buffer" : 0,
            "byteLength" : 19584,
            "byteOffset" : 712704
        },
        {
            "buffer" : 0,
            "byteLength" : 19584,
            "byteOffset" : 732288
        },
        {
            "buffer" : 0,
            "byteLength" : 13056,
            "byteOffset" : 751872
        },
        {
            "buffer" : 0,
            "byteLength" : 19512,
            "byteOffset" : 764928
        },
        {
            "buffer" : 0,
            "byteLength" : 3456,
            "byteOffset" : 784440
        },
        {
            "buffer" : 0,
            "byteLength" : 3456,
            "byteOffset" : 787896
        },
        {
            "buffer" : 0,
            "byteLength" : 2304,
            "byteOffset" : 791352
        },
        {
            "buffer" : 0,
            "byteLength" : 864,
            "byteOffset" : 793656
        },
        {
            "buffer" : 0,
            "byteLength" : 1728,
            "byteOffset" : 794520
        },
        {
            "buffer" : 0,
            "byteLength" : 1728,
            "byteOffset" : 796248
        },
        {
            "buffer" : 0,
            "byteLength" : 1152,
            "byteOffset" : 797976
        },
        {
            "buffer" : 0,
            "byteLength" : 840,
            "byteOffset" : 799128
        },
        {
            "buffer" : 0,
            "byteLength" : 3336,
            "byteOffset" : 799968
        },
        {
            "buffer" : 0,
            "byteLength" : 3336,
            "byteOffset" : 803304
        },
        {
            "buffer" : 0,
            "byteLength" : 2224,
            "byteOffset" : 806640
        },
        {
            "buffer" : 0,
            "byteLength" : 984,
            "byteOffset" : 808864
        },
        {
            "buffer" : 0,
            "byteLength" : 9408,
            "byteOffset" : 809848
        },
        {
            "buffer" : 0,
            "byteLength" : 9408,
            "byteOffset" : 819256
        },
        {
            "buffer" : 0,
            "byteLength" : 6272,
            "byteOffset" : 828664
        },
        {
            "buffer" : 0,
            "byteLength" : 2952,
            "byteOffset" : 834936
        }
    ],
    "buffers" : [
        {
            "byteLength" : 837888,
            "uri" : "dolap.bin"
        }
    ]
}
