{
    "asset" : {
        "generator" : "Khronos glTF Blender I/O v1.0.5",
        "version" : "2.0"
    },
    "scene" : 0,
    "scenes" : [
        {
            "name" : "Scene",
            "nodes" : [
                0,
                1,
                2
            ]
        }
    ],
    "nodes" : [
        {
            "name" : "Camera",
            "rotation" : [
                0.483536034822464,
                0.33687159419059753,
                -0.20870360732078552,
                0.7804827094078064
            ],
            "translation" : [
                7.358891487121582,
                4.958309173583984,
                6.925790786743164
            ]
        },
        {
            "mesh" : 0,
            "name" : "Leg:3",
            "rotation" : [
                0.7071067690849304,
                0,
                0,
                0.7071067690849304
            ],
            "scale" : [
                0.007814879529178143,
                0.007814879529178143,
                0.007814879529178143
            ],
            "translation" : [
                0,
                1.5136631727218628,
                0
            ]
        },
        {
            "name" : "Area",
            "rotation" : [
                -0.3782104551792145,
                0,
                0.13657723367214203,
                0.9155891537666321
            ],
            "scale" : [
                6.09702730178833,
                6.09702730178833,
                6.09702730178833
            ],
            "translation" : [
                0,
                2.5269243717193604,
                -3.7474284172058105
            ]
        }
    ],
    "materials" : [
        {
            "alphaMode" : "BLEND",
            "doubleSided" : true,
            "name" : "legs",
            "pbrMetallicRoughness" : {
                "baseColorTexture" : {
                    "index" : 0,
                    "texCoord" : 0
                },
                "metallicFactor" : 1,
                "roughnessFactor" : 0.6666666865348816
            }
        },
        {
            "alphaMode" : "BLEND",
            "doubleSided" : true,
            "name" : "Top",
            "pbrMetallicRoughness" : {
                "baseColorTexture" : {
                    "index" : 1,
                    "texCoord" : 0
                },
                "metallicFactor" : 1,
                "roughnessFactor" : 0.6666666865348816
            }
        },
        {
            "alphaMode" : "BLEND",
            "doubleSided" : true,
            "name" : "Under",
            "pbrMetallicRoughness" : {
                "baseColorTexture" : {
                    "index" : 2,
                    "texCoord" : 0
                },
                "metallicFactor" : 1,
                "roughnessFactor" : 0.6666666865348816
            }
        }
    ],
    "meshes" : [
        {
            "name" : "Leg:3",
            "primitives" : [
                {
                    "attributes" : {
                        "POSITION" : 0,
                        "NORMAL" : 1,
                        "TEXCOORD_0" : 2
                    },
                    "indices" : 3,
                    "material" : 0
                },
                {
                    "attributes" : {
                        "POSITION" : 4,
                        "NORMAL" : 5,
                        "TEXCOORD_0" : 6
                    },
                    "indices" : 7,
                    "material" : 1
                },
                {
                    "attributes" : {
                        "POSITION" : 8,
                        "NORMAL" : 9,
                        "TEXCOORD_0" : 10
                    },
                    "indices" : 11,
                    "material" : 2
                }
            ]
        }
    ],
    "textures" : [
        {
            "source" : 0
        },
        {
            "source" : 1
        },
        {
            "source" : 2
        }
    ],
    "images" : [
        {
            "mimeType" : "image/png",
            "name" : "siyah",
            "uri" : "siyah.png"
        },
        {
            "mimeType" : "image/jpeg",
            "name" : "Top Texture",
            "uri" : "Top Texture.jpg"
        },
        {
            "mimeType" : "image/jpeg",
            "name" : "Under Texture",
            "uri" : "Under Texture.jpg"
        }
    ],
    "accessors" : [
        {
            "bufferView" : 0,
            "componentType" : 5126,
            "count" : 384,
            "max" : [
                194.716064453125,
                119.97142791748047,
                199.8749542236328
            ],
            "min" : [
                -192.1475067138672,
                -118.15092468261719,
                -33.097938537597656
            ],
            "type" : "VEC3"
        },
        {
            "bufferView" : 1,
            "componentType" : 5126,
            "count" : 384,
            "type" : "VEC3"
        },
        {
            "bufferView" : 2,
            "componentType" : 5126,
            "count" : 384,
            "type" : "VEC2"
        },
        {
            "bufferView" : 3,
            "componentType" : 5123,
            "count" : 768,
            "type" : "SCALAR"
        },
        {
            "bufferView" : 4,
            "componentType" : 5126,
            "count" : 176,
            "max" : [
                198.010498046875,
                115.8252944946289,
                -32.149078369140625
            ],
            "min" : [
                -198.010498046875,
                -115.8252944946289,
                -42.31816864013672
            ],
            "type" : "VEC3"
        },
        {
            "bufferView" : 5,
            "componentType" : 5126,
            "count" : 176,
            "type" : "VEC3"
        },
        {
            "bufferView" : 6,
            "componentType" : 5126,
            "count" : 176,
            "type" : "VEC2"
        },
        {
            "bufferView" : 7,
            "componentType" : 5123,
            "count" : 324,
            "type" : "SCALAR"
        },
        {
            "bufferView" : 8,
            "componentType" : 5126,
            "count" : 216,
            "max" : [
                171.17849731445312,
                99.49395751953125,
                -12.62669563293457
            ],
            "min" : [
                -171.17849731445312,
                -99.49395751953125,
                -32.47075271606445
            ],
            "type" : "VEC3"
        },
        {
            "bufferView" : 9,
            "componentType" : 5126,
            "count" : 216,
            "type" : "VEC3"
        },
        {
            "bufferView" : 10,
            "componentType" : 5126,
            "count" : 216,
            "type" : "VEC2"
        },
        {
            "bufferView" : 11,
            "componentType" : 5123,
            "count" : 288,
            "type" : "SCALAR"
        }
    ],
    "bufferViews" : [
        {
            "buffer" : 0,
            "byteLength" : 4608,
            "byteOffset" : 0
        },
        {
            "buffer" : 0,
            "byteLength" : 4608,
            "byteOffset" : 4608
        },
        {
            "buffer" : 0,
            "byteLength" : 3072,
            "byteOffset" : 9216
        },
        {
            "buffer" : 0,
            "byteLength" : 1536,
            "byteOffset" : 12288
        },
        {
            "buffer" : 0,
            "byteLength" : 2112,
            "byteOffset" : 13824
        },
        {
            "buffer" : 0,
            "byteLength" : 2112,
            "byteOffset" : 15936
        },
        {
            "buffer" : 0,
            "byteLength" : 1408,
            "byteOffset" : 18048
        },
        {
            "buffer" : 0,
            "byteLength" : 648,
            "byteOffset" : 19456
        },
        {
            "buffer" : 0,
            "byteLength" : 2592,
            "byteOffset" : 20104
        },
        {
            "buffer" : 0,
            "byteLength" : 2592,
            "byteOffset" : 22696
        },
        {
            "buffer" : 0,
            "byteLength" : 1728,
            "byteOffset" : 25288
        },
        {
            "buffer" : 0,
            "byteLength" : 576,
            "byteOffset" : 27016
        }
    ],
    "buffers" : [
        {
            "byteLength" : 27592,
            "uri" : "siyah.bin"
        }
    ]
}
